<svg xmlns="http://www.w3.org/2000/svg" viewBox="0 0 55.993 49.961"><path fill="#75bdf8" d="M25.664 49.461a14.349 14.349 0 0 1-11.613-5.891l-1.759-2.389-4.99 6.273a3.8 3.8 0 1 1-5.945-4.732l6.318-7.941-4.453-6.413a13.995 13.995 0 0 1 16.16-21.374 13.72 13.72 0 0 1 5.938 4.41l.477.595 4.848-6.094a13.746 13.746 0 0 1 20.557-1.422l.059.041.154.158a14.072 14.072 0 0 1 1.332 18.249L37.318 43.639a14.347 14.347 0 0 1-11.605 5.821ZM17.19 35.025l2.975 4.039a6.829 6.829 0 0 0 5.522 2.8h.021a6.815 6.815 0 0 0 5.516-2.769l15.426-20.7a6.357 6.357 0 0 0-.471-8.2l-.024-.018-.158-.154a6.152 6.152 0 0 0-9.407.614l-5.919 7.442-8.905 11.193Zm-7.182-19.434a6.361 6.361 0 0 0-.636 8.322l.062.082 3.178 4.578 8.336-10.479-1.56-1.948a6.257 6.257 0 0 0-2.631-2.026 6.5 6.5 0 0 0-2.239-.4 6.321 6.321 0 0 0-4.513 1.872Zm39.694 5.069h-.007Z" data-name="Union 8"></path></svg>